<?xml version="1.0" encoding="utf-8"?>
<!-- Generator: Adobe Illustrator 16.0.0, SVG Export Plug-In . SVG Version: 6.00 Build 0)  -->
<!DOCTYPE svg PUBLIC "-//W3C//DTD SVG 1.1//EN" "http://www.w3.org/Graphics/SVG/1.1/DTD/svg11.dtd">
<svg version="1.1" id="圖層_1" xmlns="http://www.w3.org/2000/svg" xmlns:xlink="http://www.w3.org/1999/xlink" x="0px" y="0px"
	 width="420.5px" height="826px" viewBox="0 0 420.5 826" enable-background="new 0 0 420.5 826" xml:space="preserve">
<path fill="#E60012" d="M397.167,16c0,6.627-5.373,12-12,12h-347c-6.627,0-12-5.373-12-12v-4c0-6.627,5.373-12,12-12h347
	c6.627,0,12,5.373,12,12V16z"/>
<path fill="#E60012" d="M397.167,415c0,6.627-5.373,12-12,12h-347c-6.627,0-12-5.373-12-12v-4c0-6.627,5.373-12,12-12h347
	c6.627,0,12,5.373,12,12V415z"/>
<path fill="#E60012" d="M397.167,814c0,6.627-5.373,12-12,12h-347c-6.627,0-12-5.373-12-12v-4c0-6.627,5.373-12,12-12h347
	c6.627,0,12,5.373,12,12V814z"/>
<path fill="#E60012" d="M16,28c6.627,0,12,5.373,12,12v347c0,6.627-5.373,12-12,12h-4c-6.627,0-12-5.373-12-12V40
	c0-6.627,5.373-12,12-12H16z"/>
<path fill="#E60012" d="M16,427c6.627,0,12,5.373,12,12v347c0,6.627-5.373,12-12,12h-4c-6.627,0-12-5.373-12-12V439
	c0-6.627,5.373-12,12-12H16z"/>
<path fill="#E60012" d="M408.5,28c6.627,0,12,5.373,12,12v347c0,6.627-5.373,12-12,12h-4c-6.627,0-12-5.373-12-12V40
	c0-6.627,5.373-12,12-12H408.5z"/>
<path fill="#E60012" d="M408.5,427c6.627,0,12,5.373,12,12v347c0,6.627-5.373,12-12,12h-4c-6.627,0-12-5.373-12-12V439
	c0-6.627,5.373-12,12-12H408.5z"/>
<circle fill="#E60012" cx="207" cy="213.5" r="34.498"/>
<circle fill="#E60012" cx="207" cy="612.5" r="34.498"/>
</svg>
